# xmcd CD database file
#
# Track frame offsets:
#	150
#	17122
#	37880
#
# Disc length: 751 seconds
#
# Revision: 2
# Processed by: cddbd v1.4b41PL1 Copyright (c) Steve Scherf et al.
# Submitted via: Feurio! 1.52 - http://www.feurio.com
#
DISCID=1802ed03
DTITLE=John Lee Hooker with Robert Cray - Baby Lee
DYEAR=1900
DGENRE=
TTITLE0=Baby Lee
TTITLE1=John Lee Hooker with Canned Heat - Cuttin' Out
TTITLE2=John Lee Hooker - No Substitute
EXTD=
EXTT0=
EXTT1=
EXTT2=
PLAYORDER=
